<svg xmlns="http://www.w3.org/2000/svg" width="25.593" height="25.62" viewBox="0 0 25.593 25.62">
  <defs>
    <style>
      .cls-1 {
        fill: #f38181;
        fill-rule: evenodd;
      }
    </style>
  </defs>
  <path id="instagram" class="cls-1" d="M632.7,2085.8H613.5a3.2,3.2,0,0,1-3.2-3.2v-19.2a3.2,3.2,0,0,1,3.2-3.2h19.2a3.2,3.2,0,0,1,3.2,3.2v19.2A3.2,3.2,0,0,1,632.7,2085.8Zm-9.6-17.76a4.954,4.954,0,0,0-4.5,2.88h0a0.244,0.244,0,0,1-.022.05c-0.047.11-.088,0.22-0.128,0.33-0.019.05-.04,0.1-0.057,0.15-0.037.11-.067,0.23-0.1,0.34-0.014.05-.03,0.11-0.042,0.16-0.026.12-.044,0.24-0.061,0.37-0.007.05-.017,0.1-0.023,0.15a5.074,5.074,0,0,0-.029.53,4.96,4.96,0,1,0,9.92,0,5.074,5.074,0,0,0-.029-0.53c-0.006-.05-0.016-0.1-0.023-0.15-0.017-.13-0.035-0.25-0.061-0.37-0.012-.05-0.028-0.11-0.042-0.16-0.028-.11-0.058-0.23-0.1-0.34-0.017-.05-0.038-0.1-0.057-0.15-0.04-.11-0.081-0.22-0.128-0.33a0.244,0.244,0,0,1-.022-0.05h0A4.954,4.954,0,0,0,623.1,2068.04Zm9.92-3.68a1.278,1.278,0,0,0-1.28-1.28h-2.56a1.278,1.278,0,0,0-1.28,1.28v2.56a1.278,1.278,0,0,0,1.28,1.28h2.56a1.278,1.278,0,0,0,1.28-1.28v-2.56Zm0,6.56h-2.36a7.84,7.84,0,1,1-15.12,0h-2.36v10.72a1.278,1.278,0,0,0,1.28,1.28h17.28a1.278,1.278,0,0,0,1.28-1.28v-10.72Z" transform="translate(-610.313 -2060.19)"/>
</svg>
