<svg xmlns="http://www.w3.org/2000/svg" width="19.594" height="25.62" viewBox="0 0 19.594 25.62">
  <defs>
    <style>
      .cls-1 {
        fill: #f38181;
        fill-rule: evenodd;
      }
    </style>
  </defs>
  <path id="pinterest" class="cls-1" d="M566.051,2076.85c-0.209.84-.42,1.71-0.638,2.56a18.96,18.96,0,0,1-.718,2.47,12.691,12.691,0,0,1-2.043,3.53c-0.575.66-.453,0.4-0.626,0.36-0.132-.03-0.143-0.16-0.169-0.34a19.314,19.314,0,0,1,.007-3.34,18.15,18.15,0,0,1,.589-3.48c0.484-2.06.946-4.08,1.435-6.16a1.422,1.422,0,0,0,.09-0.44,6.471,6.471,0,0,1-.429-1.7,5.448,5.448,0,0,1,.139-1.95,3.224,3.224,0,0,1,1.894-2.34,2.206,2.206,0,0,1,1.735.14,1.851,1.851,0,0,1,.867,1.24,4.463,4.463,0,0,1-.08,1.89c-0.267,1.22-.618,2.14-0.937,3.31a3.648,3.648,0,0,0-.189,1.81,2.119,2.119,0,0,0,.847,1.28,2.493,2.493,0,0,0,1.625.46,3.572,3.572,0,0,0,2.651-1.57,9.309,9.309,0,0,0,1.675-4.69,11.565,11.565,0,0,0,.07-2.01,5.473,5.473,0,0,0-1.127-3.12,5.282,5.282,0,0,0-2.512-1.71,8.285,8.285,0,0,0-3.747-.23,6.613,6.613,0,0,0-4.915,3.53,7.085,7.085,0,0,0-.837,3.41,4.438,4.438,0,0,0,.678,2.5c0.133,0.2.328,0.37,0.458,0.6a1.718,1.718,0,0,1-.119,1.16c-0.11.43-.122,1.01-0.618,1.02a1.377,1.377,0,0,1-.638-0.24,5.108,5.108,0,0,1-2.422-3.74,8.878,8.878,0,0,1,0-3.23,9.244,9.244,0,0,1,4.4-6.15,10.4,10.4,0,0,1,3.907-1.34,13.322,13.322,0,0,1,1.605-.13,9.627,9.627,0,0,1,4.326.8,8.862,8.862,0,0,1,2.98,2.15,8.14,8.14,0,0,1,1.834,3.31,7.922,7.922,0,0,1,.4,2.29,13.861,13.861,0,0,1-.308,2.37,9.315,9.315,0,0,1-3.838,6.45,6.924,6.924,0,0,1-4,1.1,4.642,4.642,0,0,1-1.983-.58A3.306,3.306,0,0,1,566.051,2076.85Z" transform="translate(-557.906 -2060.22)"/>
</svg>
