<svg xmlns="http://www.w3.org/2000/svg" width="25.594" height="20.79" viewBox="0 0 25.594 20.79">
  <defs>
    <style>
      .cls-1 {
        fill: #f38181;
        fill-rule: evenodd;
      }
    </style>
  </defs>
  <path id="twitter" class="cls-1" d="M516.513,2062.6a5.393,5.393,0,0,1,4.151,1.65,8.665,8.665,0,0,0,2.691-.91l0.653-.36a5.272,5.272,0,0,1-1.7,2.47,2.512,2.512,0,0,1-.577.41v0.01a9.769,9.769,0,0,0,2.973-.8v0.01a8.535,8.535,0,0,1-1.781,2.04c-0.273.22-.547,0.44-0.82,0.65a15.155,15.155,0,0,1-.243,3.38c-1.312,5.89-4.788,9.89-10.289,11.61a15.83,15.83,0,0,1-7.432.31,19.915,19.915,0,0,1-3.087-1.01,12.912,12.912,0,0,1-1.487-.77c-0.154-.09-0.307-0.19-0.461-0.28a9.219,9.219,0,0,0,1.678.06c0.517-.08,1.023-0.06,1.5-0.16a10.77,10.77,0,0,0,3.151-1.14,5.97,5.97,0,0,0,1.423-.93,4.58,4.58,0,0,1-1.563-.28,5.294,5.294,0,0,1-3.332-3.36,5.194,5.194,0,0,0,2.345-.11,3.767,3.767,0,0,1-1.717-.69,5.032,5.032,0,0,1-2.473-4.49c0.18,0.08.359,0.17,0.538,0.25a5.152,5.152,0,0,0,1.1.31,1.444,1.444,0,0,0,.718.06h-0.026c-0.264-.3-0.695-0.51-0.961-0.84a5.365,5.365,0,0,1-1.179-4.76,6,6,0,0,1,.564-1.37c0.009,0,.017.01,0.026,0.01a3.044,3.044,0,0,0,.474.55,9.443,9.443,0,0,0,1.563,1.5,15.43,15.43,0,0,0,6.419,3.1,10.137,10.137,0,0,0,2.358.31,4.908,4.908,0,0,1,.025-2.47,5.165,5.165,0,0,1,2.973-3.52,5.9,5.9,0,0,1,1.166-.36C516.086,2062.65,516.3,2062.63,516.513,2062.6Z" transform="translate(-499.094 -2062.59)"/>
</svg>
